<svg width="32" height="32" viewBox="0 0 32 32" fill="none" xmlns="http://www.w3.org/2000/svg">
<g clip-path="url(#clip0_2158_2758)">
<path d="M1.41457 17.3283C1.41457 16.6891 1.47945 16.05 1.60795 15.4256L1.65964 15.1665C1.7992 14.4665 1.97639 13.7728 2.18882 13.0901C2.3297 13.0611 2.4732 13.0397 2.61901 13.0271C3.26807 12.9711 3.9052 13.0849 4.46151 13.3564C4.69182 13.4689 4.96995 13.3733 5.08239 13.1428C5.19489 12.9125 5.09932 12.6344 4.86882 12.522C4.16126 12.1765 3.35551 12.0311 2.53889 12.1019C2.5337 12.1024 2.52857 12.1031 2.52332 12.1036C2.64145 11.7825 2.93301 11.0763 2.94895 11.0394C3.42845 11.1399 3.86814 11.336 4.23739 11.6174C4.43951 11.772 4.73189 11.7346 4.88807 11.5295C5.04351 11.3256 5.0042 11.0343 4.8002 10.8788C4.18701 10.4115 3.43164 10.1256 2.61564 10.0522C1.8047 9.97895 0.992448 10.1212 0.266448 10.4629C0.0343853 10.5721 -0.0651147 10.8488 0.0440728 11.0808C0.15326 11.3129 0.43001 11.4122 0.661948 11.3031C1.07107 11.1105 1.51532 10.9983 1.96989 10.9698C1.78457 11.4163 1.61401 11.8693 1.45926 12.3278C1.0482 12.4674 0.662323 12.6648 0.31551 12.9161C0.107885 13.0666 0.0614478 13.3569 0.211885 13.5646C0.363323 13.7736 0.65476 13.8176 0.860385 13.6682C0.93701 13.6127 1.01639 13.5609 1.09776 13.5121C0.964135 13.9991 0.847385 14.4905 0.74876 14.985L0.697698 15.2413C0.557073 15.9243 0.485823 16.6264 0.485823 17.3284C0.485823 19.5451 1.17945 21.6569 2.49176 23.4355C2.58282 23.5589 2.72332 23.6241 2.86576 23.6241C2.96151 23.6241 3.05814 23.5946 3.14107 23.5335C3.34745 23.3812 3.39126 23.0904 3.23901 22.8841C2.04551 21.2663 1.41457 19.3451 1.41457 17.3283Z" fill="#EDF2F7"/>
<path d="M3.43739 8.99456C3.66358 9.11574 3.94489 9.03049 4.06583 8.80443L5.80908 5.54899C5.92083 5.40168 6.0897 5.31712 6.27614 5.31624H6.27908C6.47233 5.31624 6.64733 5.40631 6.75964 5.56368L8.39446 7.85418C8.54333 8.06268 8.80258 8.16681 9.05502 8.11981C9.62189 8.01406 10.203 7.96049 10.7824 7.96049H12.7962C13.0095 7.96049 13.2108 7.85687 13.3351 7.68306L14.8565 5.55149C14.9687 5.39424 15.144 5.30399 15.3371 5.30399C15.5304 5.30399 15.7056 5.39418 15.8178 5.55149L17.3394 7.68337C17.4635 7.85687 17.6648 7.96049 17.8781 7.96049H19.3405C21.0608 7.96049 22.7426 8.43081 24.2041 9.32056C24.2795 9.36643 24.3628 9.38831 24.4451 9.38831C24.6018 9.38831 24.7548 9.30899 24.8421 9.16537C24.9755 8.94631 24.906 8.66068 24.687 8.52731C23.08 7.54899 21.2311 7.03181 19.3405 7.03181H18.0153L16.5737 5.01187C16.2892 4.61324 15.827 4.37524 15.3371 4.37524C14.8474 4.37531 14.3851 4.61331 14.1006 5.01193L12.659 7.03181H10.7824C10.203 7.03181 9.62183 7.08068 9.05221 7.17706L7.51552 5.02399C7.23071 4.62506 6.76883 4.38743 6.27895 4.38743C6.27652 4.38743 6.27414 4.38743 6.27171 4.38743C5.77908 4.38981 5.31646 4.63218 5.03414 5.03581C5.02364 5.05087 5.01396 5.06649 5.00533 5.08281L3.24727 8.36599C3.12614 8.59212 3.21127 8.87349 3.43739 8.99456Z" fill="#EDF2F7"/>
<path d="M31.6208 8.05204C31.339 7.7106 30.9411 7.49941 30.4998 7.45716C29.5907 7.37185 28.7799 8.04079 28.693 8.94904C28.6123 9.79198 28.0684 10.4943 27.2885 10.7833C27.01 10.4455 26.7085 10.1236 26.3901 9.82447C26.2033 9.64879 25.9094 9.65798 25.7338 9.84479C25.5582 10.0317 25.5673 10.3255 25.7541 10.5011C26.0865 10.8134 26.3988 11.153 26.6823 11.5104C26.846 11.7168 27.1159 11.804 27.3698 11.7325C28.612 11.383 29.4941 10.3251 29.6173 9.03747C29.6555 8.6381 30.0125 8.34335 30.412 8.3816C30.812 8.41985 31.1061 8.77635 31.0679 9.17622C30.9707 10.1913 30.5279 11.1571 29.821 11.8958C29.4032 12.3323 28.9074 12.678 28.3473 12.9233C28.0258 13.064 27.8727 13.4419 28.006 13.7656C28.1964 14.2283 28.3496 14.7086 28.4631 15.1953C27.7157 15.0063 26.9468 14.9103 26.1691 14.9103C21.0165 14.9103 16.8246 19.1022 16.8246 24.2548C16.8246 25.0837 16.9333 25.9024 17.1478 26.696H10.7823C8.44458 26.696 6.20589 25.8301 4.47858 24.2578C4.28889 24.0851 3.99514 24.0989 3.82264 24.2885C3.64996 24.4782 3.66383 24.7718 3.85339 24.9445C5.75208 26.6728 8.21277 27.6246 10.7823 27.6246H17.325C17.7798 27.6246 18.2073 27.4475 18.5288 27.1259L28.9437 16.711C29.3545 16.3002 29.5271 15.7173 29.4053 15.1518C29.2965 14.646 29.148 14.1456 28.9631 13.6605C29.5371 13.376 30.0503 12.9992 30.4918 12.5379C31.3424 11.649 31.8752 10.4866 31.9922 9.26479C32.0344 8.8241 31.9025 8.39347 31.6208 8.05204ZM18.0125 26.3291C17.8408 25.6534 17.7533 24.9583 17.7533 24.2548C17.7533 19.6144 21.5286 15.839 26.1691 15.839C26.8725 15.839 27.5676 15.927 28.2431 16.0985L27.4615 16.8801C27.255 16.8442 27.0469 16.8158 26.8388 16.7973C26.5841 16.7753 26.3579 16.9633 26.3352 17.2187C26.316 17.4348 26.4483 17.6288 26.6441 17.6975L19.6269 24.7147C19.6163 24.562 19.6115 24.1245 19.6135 24.0597C19.621 23.8033 19.4194 23.5894 19.163 23.5818C18.9092 23.5747 18.6928 23.7759 18.6851 24.0322C18.683 24.1062 18.695 24.7679 18.7207 25.0205C18.7368 25.1787 18.8309 25.31 18.9608 25.3808L18.0125 26.3291Z" fill="#EDF2F7"/>
<path d="M10.8242 11.4305C10.5678 11.4305 10.3599 11.6384 10.3599 11.8949V12.6419C10.2232 12.7809 10.0364 12.8621 9.83849 12.8621C9.59774 12.8621 9.37218 12.7434 9.23499 12.5445C9.08943 12.3335 8.80037 12.2804 8.58912 12.426C8.37805 12.5715 8.32499 12.8607 8.47055 13.0719C8.78105 13.522 9.29243 13.7908 9.83849 13.7908C10.1981 13.7908 10.5422 13.6737 10.8242 13.4655C11.1062 13.6737 11.4504 13.7908 11.8099 13.7908C12.3561 13.7908 12.8674 13.522 13.1779 13.0719C13.3234 12.8607 13.2704 12.5715 13.0592 12.426C12.8482 12.2804 12.5589 12.3335 12.4134 12.5447C12.2763 12.7435 12.0507 12.8622 11.8099 12.8622C11.6121 12.8622 11.4252 12.781 11.2886 12.642V11.8949C11.2886 11.6384 11.0807 11.4305 10.8242 11.4305Z" fill="#EDF2F7"/>
<path d="M6.60596 11.0554C6.60596 11.3983 6.88389 11.6762 7.22677 11.6762C7.56964 11.6762 7.84758 11.3983 7.84758 11.0554C7.84758 10.7125 7.56964 10.4346 7.22677 10.4346C6.88389 10.4346 6.60596 10.7125 6.60596 11.0554Z" fill="#EDF2F7"/>
<path d="M14.4216 11.6762C14.7645 11.6762 15.0424 11.3982 15.0424 11.0554C15.0424 10.7125 14.7645 10.4346 14.4216 10.4346C14.0787 10.4346 13.8008 10.7125 13.8008 11.0554C13.8008 11.3982 14.0787 11.6762 14.4216 11.6762Z" fill="#EDF2F7"/>
<path d="M19.1095 12.102C18.2929 12.0311 17.4871 12.1765 16.7795 12.522C16.5491 12.6344 16.4535 12.9125 16.566 13.1428C16.6784 13.3732 16.9564 13.4691 17.1868 13.3564C17.7431 13.0848 18.38 12.9708 19.0294 13.0271C19.6785 13.0833 20.2866 13.305 20.7878 13.6681C20.9933 13.8176 21.2849 13.7735 21.4363 13.5645C21.5868 13.3568 21.5404 13.0665 21.3327 12.9161C20.6952 12.4541 19.9264 12.1726 19.1095 12.102Z" fill="#EDF2F7"/>
<path d="M21.604 11.0807C21.7132 10.8487 21.6137 10.572 21.3817 10.4628C20.6557 10.1211 19.8433 9.97915 19.0326 10.0521C18.2165 10.1255 17.4611 10.4114 16.8479 10.8787C16.644 11.0342 16.6047 11.3255 16.7601 11.5295C16.9163 11.7345 17.2087 11.7718 17.4108 11.6173C17.8847 11.2561 18.4742 11.0347 19.1158 10.977C19.7625 10.9188 20.4092 11.0315 20.986 11.303C21.218 11.412 21.4947 11.3126 21.604 11.0807Z" fill="#EDF2F7"/>
<path d="M19.3889 22.3629C19.6243 22.4478 19.8963 22.3236 19.9812 22.0794C20.0768 21.8081 20.1918 21.5403 20.3228 21.2837C20.4395 21.0552 20.3488 20.7756 20.1204 20.659C19.8918 20.5424 19.6123 20.6331 19.4958 20.8615C19.3461 21.1548 19.2147 21.4606 19.1054 21.7707C19.0201 22.0125 19.1471 22.2776 19.3889 22.3629Z" fill="#EDF2F7"/>
<path d="M23.7537 18.1244C23.8068 18.1244 23.8609 18.1153 23.9137 18.0958C24.1842 17.9964 24.4639 17.9143 24.745 17.8519C24.9954 17.7963 25.1532 17.5483 25.0976 17.2979C25.042 17.0476 24.7939 16.8897 24.5437 16.9454C24.2223 17.0168 23.9025 17.1106 23.5934 17.2241C23.3527 17.3126 23.2292 17.5794 23.3177 17.8201C23.3868 18.0079 23.5645 18.1244 23.7537 18.1244Z" fill="#EDF2F7"/>
<path d="M21.1733 19.788C21.2932 19.788 21.413 19.7419 21.5038 19.6499C21.7063 19.4447 21.9244 19.251 22.1519 19.0741C22.3544 18.9168 22.391 18.6251 22.2336 18.4226C22.0762 18.22 21.7845 18.1836 21.582 18.3409C21.3225 18.5426 21.0739 18.7635 20.8428 18.9975C20.6627 19.18 20.6646 19.474 20.8472 19.6541C20.9376 19.7435 21.0555 19.788 21.1733 19.788Z" fill="#EDF2F7"/>
</g>
<defs>
<clipPath id="clip0_2158_2758">
<rect width="32" height="32" fill="white"/>
</clipPath>
</defs>
</svg>
