<svg width="57" height="57" viewBox="0 0 57 57" fill="none" xmlns="http://www.w3.org/2000/svg">
<path fill-rule="evenodd" clip-rule="evenodd" d="M22.53 10.5C14.05 10.5 7.56 16.42 7.56 23.3C7.56 25.77 8.38 28.09 9.81 30.04C10.0047 30.2996 10.11 30.6154 10.11 30.94C10.11 32.57 9.68 34.16 9.15 35.61C8.79394 36.5572 8.40368 37.4911 7.98 38.41C11.29 38.08 13.48 37.01 14.78 35.45C14.9817 35.2111 15.2531 35.0413 15.5561 34.9642C15.8591 34.8871 16.1786 34.9066 16.47 35.02C18.4065 35.7513 20.46 36.124 22.53 36.12C31 36.11 37.5 30.18 37.5 23.3C37.5 16.43 31 10.5 22.53 10.5ZM4.56 23.3C4.56 14.4 12.8 7.5 22.53 7.5C32.25 7.5 40.5 14.38 40.5 23.3C40.5 32.23 32.25 39.11 22.53 39.11C20.36 39.11 18.28 38.78 16.36 38.16C14.1 40.3 10.81 41.34 6.76 41.5C6.39019 41.5091 6.02406 41.4247 5.69547 41.2548C5.36688 41.0849 5.08645 40.8349 4.88011 40.5278C4.67376 40.2208 4.54817 39.8667 4.51494 39.4983C4.48171 39.1299 4.54192 38.759 4.69 38.42L5.11 37.47C5.54 36.51 5.97 35.57 6.33 34.57C6.74 33.46 7.02 32.39 7.09 31.39C5.44924 29.0144 4.56712 26.1972 4.56 23.31V23.3Z" fill="#EDF2F7"/>
<path fill-rule="evenodd" clip-rule="evenodd" d="M43.51 19.27C43.3974 19.4321 43.318 19.6148 43.2762 19.8076C43.2343 20.0005 43.231 20.1997 43.2663 20.3938C43.3016 20.588 43.3749 20.7733 43.4819 20.939C43.5889 21.1048 43.7276 21.2479 43.89 21.36C47.33 23.74 49.44 27.34 49.44 31.31C49.44 33.78 48.63 36.09 47.19 38.04C46.9953 38.2996 46.89 38.6154 46.89 38.94C46.89 40.57 47.32 42.16 47.85 43.61C48.2 44.57 48.62 45.53 49.02 46.41C45.71 46.08 43.52 45.01 42.22 43.45C42.0183 43.2111 41.7469 43.0412 41.4439 42.9641C41.1409 42.8871 40.8214 42.9066 40.53 43.02C38.5935 43.7513 36.54 44.124 34.47 44.12C31.49 44.12 28.72 43.36 26.39 42.09C26.0426 41.9142 25.6404 41.8803 25.2685 41.9957C24.8965 42.111 24.5841 42.3664 24.397 42.708C24.21 43.0495 24.1632 43.4504 24.2664 43.8259C24.3696 44.2013 24.6147 44.522 24.95 44.72C27.3365 46.0008 29.9564 46.7884 32.6536 47.0358C35.3508 47.2832 38.0703 46.9853 40.65 46.16C42.9 48.3 46.19 49.34 50.24 49.5C50.6098 49.509 50.9759 49.4247 51.3045 49.2548C51.6331 49.0849 51.9135 48.8348 52.1199 48.5278C52.3262 48.2208 52.4518 47.8667 52.4851 47.4982C52.5183 47.1298 52.4581 46.759 52.31 46.42L51.89 45.47C51.45 44.51 51.03 43.57 50.67 42.57C50.2684 41.551 50.0126 40.4804 49.91 39.39C51.5508 37.0143 52.4329 34.1971 52.44 31.31C52.44 26.21 49.72 21.75 45.6 18.89C45.4379 18.7774 45.2552 18.698 45.0623 18.6561C44.8695 18.6143 44.6703 18.611 44.4761 18.6463C44.282 18.6816 44.0967 18.7548 43.9309 18.8619C43.7651 18.9689 43.6221 19.1076 43.51 19.27Z" fill="#EDF2F7"/>
</svg>
