<svg width="22" height="22" viewBox="0 0 22 22" fill="none" xmlns="http://www.w3.org/2000/svg">
<g clip-path="url(#clip0_879_3367)">
<path d="M8.01259 6.63842C8.01723 5.13672 7.30451 3.72982 6.17152 3.51278C5.03916 3.29586 3.99755 4.73403 3.71451 6.21159C3.43146 7.68915 4.43587 9.05755 5.56824 9.27447C6.70184 9.49163 8.00913 8.28836 8.01259 6.63842Z" fill="#EDF2F7"/>
<path d="M9.8848 8.27409C10.9144 8.80266 12.4741 8.0076 12.8992 6.40991C13.2844 4.95601 12.964 3.39203 11.9322 2.86167C10.9016 2.33156 9.53805 3.43238 8.89127 4.78391C8.24312 6.13586 8.85563 7.74355 9.8848 8.27409Z" fill="#EDF2F7"/>
<path d="M16.6965 10.1888C17.608 9.01357 17.9221 7.43467 17.1924 6.50591C16.4666 5.57655 14.8053 6.00859 13.6947 6.97793C12.585 7.94542 12.5184 9.68987 13.2472 10.6198C13.9751 11.5482 15.6945 11.481 16.6965 10.1888Z" fill="#EDF2F7"/>
<path d="M19.2416 12.6935C18.9763 11.6309 17.4598 11.3337 16.204 11.7042C14.9484 12.0734 14.2685 13.5041 14.5337 14.5673C14.7989 15.6311 16.2341 16.255 17.5172 15.574C18.686 14.9526 19.5062 13.7572 19.2416 12.6935Z" fill="#EDF2F7"/>
<path d="M10.6159 9.38182C7.93841 8.68493 4.13894 10.2086 3.62993 12.8657C3.12092 15.5228 5.61796 18.1556 8.32659 18.7199C12.509 19.5863 13.8734 17.4366 13.9084 14.7355C13.943 11.9359 12.5228 9.8802 10.6159 9.38182Z" fill="#EDF2F7"/>
</g>
<defs>
<clipPath id="clip0_879_3367">
<rect width="17.5152" height="17.5152" fill="white" transform="translate(3.89001 0.583008) rotate(10.8444)"/>
</clipPath>
</defs>
</svg>
