<svg width="463" height="302" viewBox="0 0 463 302" fill="none" xmlns="http://www.w3.org/2000/svg">
<path d="M122.047 285.636C126.133 283.482 131.019 286.559 130.841 291.174L129.707 320.597C129.529 325.213 124.421 327.905 120.513 325.443L95.5992 309.75C91.6911 307.288 91.9134 301.519 95.9994 299.365L122.047 285.636Z" fill="white" fill-opacity="0.08"/>
<path d="M175.69 196.815C179.725 199.063 179.813 204.836 175.848 207.206L150.575 222.315C146.611 224.685 141.567 221.874 141.497 217.256L141.049 187.814C140.979 183.196 145.934 180.234 149.969 182.482L175.69 196.815Z" fill="white" fill-opacity="0.08"/>
<path d="M70.4202 115.566C74.9166 116.623 76.5831 122.151 73.4201 125.516L53.2554 146.973C50.0923 150.339 44.4718 149.018 43.1386 144.596L34.6389 116.404C33.3057 111.982 37.2595 107.775 41.7559 108.832L70.4202 115.566Z" fill="white" fill-opacity="0.08"/>
<path d="M392.22 306.23C396.117 308.71 395.868 314.478 391.772 316.612L365.66 330.221C361.565 332.355 356.694 329.255 356.893 324.641L358.164 295.224C358.363 290.609 363.483 287.941 367.38 290.421L392.22 306.23Z" fill="white" fill-opacity="0.08"/>
<path d="M276.743 124.608C275.867 120.073 280.229 116.291 284.595 117.8L312.424 127.421C316.789 128.93 317.884 134.599 314.394 137.624L292.148 156.915C288.658 159.941 283.202 158.054 282.326 153.519L276.743 124.608Z" fill="white" fill-opacity="0.08"/>
<path d="M310.85 29.3449C308.517 33.3312 302.743 33.2972 300.458 29.2837L285.886 3.69748C283.6 -0.316045 286.516 -5.29896 291.135 -5.27177L320.579 -5.09843C325.198 -5.07124 328.055 -0.0543368 325.722 3.932L310.85 29.3449Z" fill="white" fill-opacity="0.08"/>
<path d="M429.257 184.704C432.727 181.655 438.196 183.505 439.102 188.034L444.878 216.907C445.784 221.436 441.447 225.247 437.072 223.767L409.179 214.333C404.804 212.853 403.672 207.192 407.141 204.143L429.257 184.704Z" fill="white" fill-opacity="0.08"/>
<path d="M457.383 121.791C460.434 125.258 458.586 130.728 454.058 131.637L425.188 137.426C420.659 138.335 416.846 134 418.323 129.624L427.744 101.727C429.222 97.3507 434.883 96.2155 437.934 99.6833L457.383 121.791Z" fill="white" fill-opacity="0.08"/>
<path d="M433.196 -9.06366C436.938 -11.7718 442.208 -9.41399 442.682 -4.81963L445.707 24.4694C446.182 29.0638 441.505 32.449 437.289 30.5627L410.411 18.538C406.195 16.6518 405.602 10.9088 409.343 8.20068L433.196 -9.06366Z" fill="white" fill-opacity="0.08"/>
<circle cx="192.29" cy="59.8335" r="21.5" fill="white" fill-opacity="0.08"/>
<circle cx="272.29" cy="252.833" r="21.5" fill="white" fill-opacity="0.08"/>
<rect x="43.0589" y="59.2454" width="47" height="47" rx="13" transform="rotate(-45.7103 43.0589 59.2454)" fill="white" fill-opacity="0.08"/>
<rect x="44.993" y="200.543" width="47" height="47" rx="13" transform="rotate(73.1958 44.993 200.543)" fill="white" fill-opacity="0.08"/>
</svg>
