<svg width="24" height="24" viewBox="0 0 24 24" fill="none" xmlns="http://www.w3.org/2000/svg">
<path fill-rule="evenodd" clip-rule="evenodd" d="M9.55998 4.1001H13.1C13.3387 4.1001 13.5676 4.19492 13.7364 4.3637C13.9052 4.53248 14 4.7614 14 5.0001C14 5.23879 13.9052 5.46771 13.7364 5.63649C13.5676 5.80528 13.3387 5.9001 13.1 5.9001H9.59998C8.59998 5.9001 7.90998 5.9001 7.36998 5.9401C6.84998 5.9901 6.54998 6.0701 6.31998 6.1801C5.82878 6.42971 5.42959 6.82891 5.17998 7.3201C5.06998 7.5501 4.97998 7.8501 4.93998 8.3701C4.89998 8.9101 4.89998 9.6101 4.89998 10.6001V14.4001C4.89998 15.4001 4.89998 16.0901 4.93998 16.6301C4.98998 17.1501 5.06998 17.4501 5.17998 17.6801C5.42998 18.1701 5.82998 18.5701 6.31998 18.8201C6.54998 18.9301 6.84998 19.0201 7.36998 19.0601C7.90998 19.1001 8.60998 19.1001 9.59998 19.1001H13.4C14.4 19.1001 15.09 19.1001 15.63 19.0601C16.15 19.0101 16.45 18.9301 16.68 18.8201C17.1712 18.5705 17.5704 18.1713 17.82 17.6801C17.93 17.4501 18.02 17.1501 18.06 16.6301C18.1 16.0901 18.1 15.3901 18.1 14.4001V10.9001C18.1 10.6614 18.1948 10.4325 18.3636 10.2637C18.5324 10.0949 18.7613 10.0001 19 10.0001C19.2387 10.0001 19.4676 10.0949 19.6364 10.2637C19.8052 10.4325 19.9 10.6614 19.9 10.9001V14.4401C19.9 15.3901 19.9 16.1501 19.85 16.7701C19.8234 17.3697 19.6772 17.9579 19.42 18.5001C18.9984 19.3265 18.3264 19.9985 17.5 20.4201C16.9578 20.6774 16.3695 20.8236 15.77 20.8501C15.15 20.9001 14.39 20.9001 13.44 20.9001H9.55998C8.60998 20.9001 7.84998 20.9001 7.22998 20.8501C6.6304 20.8236 6.0422 20.6774 5.49998 20.4201C4.67357 19.9985 4.00156 19.3265 3.57998 18.5001C3.32297 17.9578 3.17678 17.3696 3.14998 16.7701C3.09998 16.1501 3.09998 15.3901 3.09998 14.4401V10.5601C3.09998 9.6101 3.09998 8.8501 3.14998 8.2301C3.19998 7.5901 3.30998 7.0301 3.57998 6.5001C4.00156 5.67369 4.67357 5.00168 5.49998 4.5801C6.04229 4.32309 6.63044 4.1769 7.22998 4.1501C7.84998 4.1001 8.60998 4.1001 9.55998 4.1001Z" fill="#EDF2F7"/>
<path fill-rule="evenodd" clip-rule="evenodd" d="M19.12 3.33006C19.2206 3.22282 19.3418 3.13686 19.4762 3.07726C19.6107 3.01766 19.7558 2.98564 19.9028 2.98308C20.0499 2.98052 20.196 3.00747 20.3324 3.06236C20.4689 3.11724 20.5929 3.19893 20.6973 3.3026C20.8016 3.40626 20.8841 3.5298 20.9399 3.66591C20.9956 3.80201 21.0235 3.94791 21.0219 4.09499C21.0203 4.24206 20.9892 4.38732 20.9305 4.52216C20.8717 4.65701 20.7865 4.77871 20.68 4.88006L20.33 5.23006C20.2927 5.26785 20.2484 5.29787 20.1994 5.31835C20.1505 5.33884 20.098 5.34939 20.045 5.34939C19.9919 5.34939 19.9394 5.33884 19.8905 5.31835C19.8415 5.29787 19.7972 5.26785 19.76 5.23006L18.77 4.24006C18.6967 4.16529 18.6556 4.06476 18.6556 3.96006C18.6556 3.85536 18.6967 3.75483 18.77 3.68006L19.12 3.33006ZM18.52 5.90006L18.1 5.48006C17.66 5.04006 17.38 5.06006 16.97 5.48006L11.84 10.6001C9.88996 12.5601 8.64996 14.4901 9.07996 14.9201C9.50996 15.3501 11.44 14.1201 13.4 12.1601L18.52 7.03006C18.96 6.59006 18.94 6.31006 18.52 5.90006Z" fill="#EDF2F7"/>
</svg>
