<svg width="180" height="107" viewBox="0 0 180 107" fill="none" xmlns="http://www.w3.org/2000/svg">
<path opacity="0.53" d="M16.4392 44.6204C18.7682 42.6388 26.8655 42.8329 31.6032 42.8329C36.3408 42.8329 45.6861 43.0425 48.2578 46.3032C50.8294 49.5638 43.689 53.036 32.6357 53.036C21.5825 53.036 9.52387 50.509 16.4392 44.6204Z" fill="#99ADF9"/>
<path d="M147.016 54.1909C147.016 54.1909 164.065 54.5558 170.213 55.5941C176.362 56.6325 184.188 64.1922 177.34 72.1517C170.493 80.1112 160.354 79.1815 131.613 79.1815C136.535 63.3964 147.016 54.1909 147.016 54.1909Z" fill="#99ADF9"/>
<path d="M38.1077 57.8882C38.1077 57.8882 28.5723 56.3239 15.3802 58.323C7.27511 59.5515 -0.68827 63.8816 0.0473191 70.0788C1.12256 79.1601 22.7962 75.7073 28.5781 80.7128C34.3599 85.7183 21.7598 87.1798 18.2255 92.4202C14.6912 97.6605 17.9052 104.772 34.4182 105.853C50.9311 106.934 102.236 107.485 114.089 105.998C125.942 104.512 133.222 90.6307 114.349 83.1661C84.8807 77.163 38.1077 57.8882 38.1077 57.8882Z" fill="#99ADF9"/>
<path d="M155.486 61.4439C155.486 76.7632 132.695 89.1828 90.2479 89.1828C47.8011 89.1828 26.1992 76.7612 26.1992 61.4439C26.1992 46.1266 47.8127 33.705 90.2479 33.705C132.683 33.705 155.486 46.1246 155.486 61.4439Z" fill="#F0F6FF"/>
<path opacity="0.36" d="M61.3324 48.2673C61.3324 48.2673 38.0168 50.6158 36.3398 81.7764C45.5628 98.2641 81.8959 94.3532 81.8959 94.3532C81.8959 94.3532 80.5198 62.7656 92.9977 45.552C118.928 46.3905 137.374 46.1343 144.361 81.0699C158.615 73.8033 159.711 57.9872 159.711 57.9872C159.711 57.9872 152.724 35.6284 142.523 33.113C132.322 30.5977 115.832 33.672 115.832 33.672L61.3324 48.2673Z" fill="#FF97C9"/>
<g style="mix-blend-mode:multiply" opacity="0.64">
<path d="M135.279 50.1733C135.279 57.6709 119.612 63.7497 90.4446 63.7497C61.2772 63.7497 46.4121 57.6709 46.4121 50.1733C46.4121 42.6757 61.2694 36.5989 90.4446 36.5989C119.62 36.5989 135.279 42.6796 135.279 50.1733Z" fill="#E1ECFF"/>
</g>
<path d="M110.586 52.1898C110.586 52.1898 113.443 55.4194 113.816 58.028C114.188 60.6365 113.878 63.8661 116.921 64.9219C119.964 65.9778 127.984 66.5988 130.46 63.4313C132.937 60.2638 131.268 55.171 126.796 51.3203C120.779 45.9791 113.94 45.5443 113.94 45.5443L110.586 52.1898Z" fill="#FEC272"/>
<g style="mix-blend-mode:multiply" opacity="0.45">
<path d="M109.694 58.4278C109.694 58.4278 122.504 57.4379 122.213 43.8907C112.412 44.3759 107.379 51.2252 107.379 51.2252L109.694 58.4278Z" fill="#FEC272"/>
</g>
<path d="M67.8906 52.1898C67.8906 52.1898 70.7476 55.4194 71.1202 58.028C71.4929 60.6365 71.1823 63.8661 74.2256 64.9219C77.2689 65.9778 85.2886 66.5988 87.7651 63.4313C90.2417 60.2638 88.5725 55.171 84.1008 51.3203C78.0841 45.9791 71.2444 45.5443 71.2444 45.5443L67.8906 52.1898Z" fill="#FEC272"/>
<g style="mix-blend-mode:multiply" opacity="0.45">
<path d="M70.8477 48.6768C70.8477 48.6768 77.4835 59.6796 89.4586 53.3349C84.6239 44.7951 76.2433 43.3724 76.2433 43.3724L70.8477 48.6768Z" fill="#FEC272"/>
</g>
<path d="M105.526 4.68512C107.272 4.74335 112.825 4.33771 115.142 11.1734C117.46 18.0092 119.255 22.9933 122.384 27.4534C125.513 31.9136 128.699 40.0244 122.384 45.6976C116.068 51.3708 108.656 49.9908 105.238 48.3081C101.82 46.6253 97.762 43.8441 98.748 34.3474C99.734 24.8507 102.746 19.0534 103.094 13.8383C103.441 8.62314 103.973 6.88606 105.526 4.68512Z" fill="#FF8D76"/>
<path d="M89.2225 0.0270686C98.2883 -0.341696 105.656 3.10141 109.01 7.66633C112.363 12.2313 114.32 23.3175 114.739 26.6247C115.158 29.932 116.649 31.702 118.233 33.8913C119.931 36.2398 122.844 43.487 119.723 48.3314C116.602 53.1758 111.517 54.418 106.108 51.7629C100.658 53.8978 96.0272 54.9925 87.2234 53.5096C78.4196 52.0268 69.9671 44.5525 67.8147 29.536C66.5725 20.8409 66.557 10.2205 70.726 4.69292C77.6801 2.78699 80.64 0.368661 89.2225 0.0270686Z" fill="#FEC272"/>
<path d="M70.7475 4.68512C68.8843 4.74723 62.9219 4.31247 60.4376 11.6412C57.9533 18.9699 56.0338 24.3112 52.6742 29.0935C49.3145 33.8758 45.9044 42.5709 52.6742 48.6574C59.4439 54.744 67.3937 53.2534 71.0581 51.4523C74.7224 49.6512 79.07 46.67 78.0141 36.4843C76.9583 26.2986 73.7287 20.0878 73.356 14.4981C72.9834 8.90845 72.4244 7.04522 70.7475 4.68512Z" fill="#FF8D76"/>
<path d="M89.7458 31.081C91.135 31.081 92.2612 29.9548 92.2612 28.5656C92.2612 27.1764 91.135 26.0503 89.7458 26.0503C88.3566 26.0503 87.2305 27.1764 87.2305 28.5656C87.2305 29.9548 88.3566 31.081 89.7458 31.081Z" fill="#1C3177"/>
<path d="M110.177 31.081C111.567 31.081 112.693 29.9548 112.693 28.5656C112.693 27.1764 111.567 26.0503 110.177 26.0503C108.788 26.0503 107.662 27.1764 107.662 28.5656C107.662 29.9548 108.788 31.081 110.177 31.081Z" fill="#1C3177"/>
<path d="M85.8066 22.1782C85.6126 21.266 87.8756 20.1442 89.0285 19.3019C90.1814 18.4595 91.9184 18.1373 92.8326 19.6745C93.7467 21.2117 90.6142 22.6576 89.4594 22.9041C88.3045 23.1506 86.0124 23.1778 85.8066 22.1782Z" fill="#FF8D76"/>
<path d="M112.69 21.8366C112.766 20.9962 110.792 20.1073 109.762 19.4086C108.731 18.7099 107.26 18.5158 106.635 19.9676C106.01 21.4193 108.739 22.5509 109.719 22.71C110.699 22.8692 112.607 22.7585 112.69 21.8366Z" fill="#FF8D76"/>
<path d="M101.971 36.8259C102.15 35.7779 109.541 35.4285 110.177 36.8259C110.814 38.2234 108.819 41.8101 106.769 41.8101C104.72 41.8101 101.506 39.5742 101.971 36.8259Z" fill="#1C3177"/>
<path d="M106.967 38.8289C107.044 40.8205 106.953 42.8149 106.695 44.7913" stroke="#1C3177" stroke-width="7" stroke-miterlimit="10" stroke-linecap="round"/>
<g style="mix-blend-mode:multiply">
<path d="M78.3269 64.9297C78.3269 64.9297 79.1964 62.6007 78.1328 60.5065" stroke="#FEC272" stroke-width="7" stroke-miterlimit="10" stroke-linecap="round"/>
</g>
<g style="mix-blend-mode:multiply">
<path d="M85.19 64.4639C85.481 63.124 85.2957 61.7245 84.666 60.5065" stroke="#FEC272" stroke-width="7" stroke-miterlimit="10" stroke-linecap="round"/>
</g>
<g style="mix-blend-mode:multiply">
<path d="M121.022 64.9297C121.022 64.9297 121.892 62.6007 120.828 60.5065" stroke="#FEC272" stroke-width="7" stroke-miterlimit="10" stroke-linecap="round"/>
</g>
<g style="mix-blend-mode:multiply">
<path d="M127.885 64.4639C128.178 63.1242 127.993 61.7245 127.363 60.5065" stroke="#FEC272" stroke-width="7" stroke-miterlimit="10" stroke-linecap="round"/>
</g>
<path opacity="0.53" d="M139.452 88.6413C141.781 86.6577 149.876 86.8518 154.616 86.8518C159.355 86.8518 168.699 87.0634 171.27 90.324C173.842 93.5847 166.702 97.055 155.648 97.055C144.595 97.055 132.544 94.5299 139.452 88.6413Z" fill="#99ADF9"/>
</svg>
