<svg width="18" height="18" viewBox="0 0 18 18" fill="none" xmlns="http://www.w3.org/2000/svg">
<path d="M9 0C5.65604 0 2.93555 2.7205 2.93555 6.06445C2.93555 7.53979 3.47164 8.96165 4.44509 10.0681C5.35841 11.1062 6.59422 11.7996 7.94531 12.037V13.7461H6.85547C6.27391 13.7461 5.80078 14.2192 5.80078 14.8008C5.80078 15.0825 5.9105 15.3474 6.1097 15.5466C6.30889 15.7457 6.57376 15.8555 6.85547 15.8555H7.94531V16.9453C7.94531 17.5269 8.41845 18 9 18C9.58155 18 10.0547 17.5269 10.0547 16.9453V15.8555H11.1445C11.4263 15.8555 11.6911 15.7457 11.8903 15.5466C12.0895 15.3473 12.1992 15.0825 12.1992 14.8008C12.1992 14.2192 11.7261 13.7461 11.1445 13.7461H10.0547V12.037C11.4058 11.7997 12.6416 11.1062 13.5549 10.0681C14.5284 8.96164 15.0645 7.53979 15.0645 6.06445C15.0645 2.7205 12.344 0 9 0ZM9.75537 11.5501C9.62473 11.5679 9.52734 11.6795 9.52734 11.8113V14.0098C9.52734 14.1554 9.64536 14.2734 9.79102 14.2734H11.1445C11.4353 14.2734 11.6719 14.51 11.6719 14.8008C11.6719 14.9416 11.617 15.0741 11.5174 15.1737C11.4178 15.2733 11.2854 15.3281 11.1445 15.3281H9.79102C9.64536 15.3281 9.52734 15.4462 9.52734 15.5918V16.9453C9.52734 17.2361 9.29078 17.4727 9 17.4727C8.70922 17.4727 8.47266 17.2361 8.47266 16.9453V15.5918C8.47266 15.4462 8.35464 15.3281 8.20898 15.3281H6.85547C6.7146 15.3281 6.5822 15.2733 6.4826 15.1737C6.383 15.0741 6.32812 14.9416 6.32812 14.8008C6.32812 14.51 6.56469 14.2734 6.85547 14.2734H8.20898C8.35464 14.2734 8.47266 14.1554 8.47266 14.0098V11.8113C8.47266 11.6795 8.37524 11.5679 8.24463 11.5501C5.51858 11.1783 3.46289 8.82 3.46289 6.06445C3.46289 3.01127 5.94682 0.527344 9 0.527344C12.0532 0.527344 14.5371 3.01127 14.5371 6.06445C14.5371 8.82 12.4814 11.1783 9.75537 11.5501Z" fill="#EDF2F7"/>
<path d="M9 1.58203C7.99436 1.58203 7.04387 1.90765 6.25138 2.52369C6.13638 2.61306 6.11564 2.77871 6.20501 2.89368C6.29438 3.00864 6.46007 3.02938 6.57499 2.94001C7.27411 2.3966 8.11266 2.10938 9 2.10938C11.1808 2.10938 12.9551 3.88361 12.9551 6.06445C12.9551 8.2453 11.1808 10.0195 9 10.0195C6.81919 10.0195 5.04492 8.2453 5.04492 6.06445C5.04492 5.17707 5.33215 4.33853 5.87559 3.63945C5.96496 3.52445 5.94418 3.35883 5.82922 3.26946C5.7143 3.18009 5.54864 3.2008 5.45924 3.3158C4.8432 4.10829 4.51758 5.05877 4.51758 6.06445C4.51758 8.53608 6.52837 10.5469 9 10.5469C11.4716 10.5469 13.4824 8.53608 13.4824 6.06445C13.4824 3.59283 11.4716 1.58203 9 1.58203Z" fill="#EDF2F7"/>
</svg>
