<svg width="18" height="19" viewBox="0 0 18 19" fill="none" xmlns="http://www.w3.org/2000/svg">
<path d="M16.6816 0.500061H11.6719C11.0903 0.500061 10.6172 0.973194 10.6172 1.55475C10.6172 2.1363 11.0903 2.60944 11.6719 2.60944H14.3991L11.352 5.6565C10.1211 4.74317 8.66271 4.26178 7.11914 4.26178C3.19363 4.26178 0 7.45541 0 11.3809C0 15.3064 3.19363 18.5001 7.11914 18.5001C11.0447 18.5001 14.2383 15.3064 14.2383 11.3809C14.2383 9.83735 13.7569 8.37896 12.8435 7.14807L15.8906 4.10098V6.82819C15.8906 7.40974 16.3638 7.88287 16.9453 7.88287C17.5269 7.88287 18 7.40974 18 6.82819V1.81842C18 1.09146 17.4086 0.500061 16.6816 0.500061ZM17.4727 6.82819C17.4727 7.11896 17.2361 7.35553 16.9453 7.35553C16.6545 7.35553 16.418 7.11896 16.418 6.82819V3.46444C16.418 3.35777 16.3537 3.26165 16.2552 3.22084C16.1567 3.18002 16.0433 3.20259 15.9678 3.278L12.3071 6.93865C12.2125 7.03332 12.2038 7.184 12.287 7.28891C13.2185 8.46369 13.7109 9.87869 13.7109 11.3809C13.7109 15.0157 10.7539 17.9727 7.11914 17.9727C3.48441 17.9727 0.527344 15.0157 0.527344 11.3809C0.527344 7.74619 3.48441 4.78912 7.11914 4.78912C8.62133 4.78912 10.0363 5.28149 11.2112 6.21302C11.3161 6.2962 11.4667 6.28755 11.5614 6.19284L15.2221 2.5322C15.2975 2.45679 15.32 2.34337 15.2792 2.24487C15.2384 2.14632 15.1422 2.08209 15.0356 2.08209H11.6719C11.3811 2.08209 11.1445 1.84553 11.1445 1.55475C11.1445 1.26397 11.3811 1.0274 11.6719 1.0274H16.6816C17.1178 1.0274 17.4727 1.38224 17.4727 1.81842V6.82819Z" fill="#CED7E0"/>
<path d="M7.11914 5.84381C5.84445 5.84381 4.59995 6.28773 3.61491 7.09383C3.5022 7.18604 3.4856 7.35215 3.57782 7.46487C3.67003 7.57758 3.83618 7.59417 3.94886 7.50196C4.83996 6.77274 5.96584 6.37115 7.11914 6.37115C9.88154 6.37115 12.1289 8.61852 12.1289 11.3809C12.1289 14.1433 9.88154 16.3907 7.11914 16.3907C4.35674 16.3907 2.10938 14.1433 2.10938 11.3809C2.10938 10.2276 2.51096 9.10171 3.24018 8.21064C3.33239 8.09792 3.3158 7.93181 3.20312 7.8396C3.09045 7.74738 2.9243 7.76401 2.83208 7.87665C2.02595 8.86173 1.58203 10.1062 1.58203 11.3809C1.58203 14.4341 4.06596 16.918 7.11914 16.918C10.1723 16.918 12.6562 14.4341 12.6562 11.3809C12.6562 8.32774 10.1723 5.84381 7.11914 5.84381Z" fill="#CED7E0"/>
</svg>
