<svg width="28" height="29" viewBox="0 0 28 29" fill="none" xmlns="http://www.w3.org/2000/svg">
<path d="M27.9644 19.5512L25.476 12.7069C25.3921 12.4747 25.1202 12.3358 24.9243 12.323L6.12204 12.4595C6.05454 12.4595 5.98789 12.4723 5.92487 12.4956L0.383594 14.5371C0.082616 14.6479 -0.0724655 14.9816 0.0371169 15.2839L4.70345 28.1163C4.756 28.2622 4.86558 28.3812 5.00571 28.4466C5.08261 28.4816 5.16677 28.5002 5.25072 28.5002C5.3195 28.5002 5.38722 28.4884 5.45258 28.4641L27.6179 20.2977C27.9189 20.1871 28.074 19.8534 27.9644 19.5512Z" fill="#388E3C"/>
<path d="M27.8285 10.005L18.4958 0.672087C18.2684 0.444591 17.8984 0.444591 17.6711 0.672087L0.172087 18.1711C-0.0554091 18.3986 -0.0554091 18.7686 0.172087 18.9961L9.50475 28.3287C9.61796 28.443 9.76728 28.5002 9.91659 28.5002C10.0659 28.5002 10.2152 28.443 10.3295 28.33L27.8285 10.831C28.056 10.6022 28.056 10.2337 27.8285 10.005Z" fill="#4CAF50"/>
<path d="M17.4229 15.0447C17.2223 14.1815 16.7043 13.2995 15.9672 12.5621C14.3467 10.9419 12.22 10.53 11.1246 11.6254C10.029 12.7208 10.4408 14.8475 12.0613 16.468C12.7987 17.2052 13.6805 17.7232 14.5439 17.924C14.8109 17.987 15.0687 18.0173 15.3137 18.0173C15.9507 18.0173 16.5001 17.8084 16.9039 17.4047C17.4627 16.8448 17.647 16.0072 17.4229 15.0447Z" fill="#FAFAFA"/>
<path d="M9.91689 28.4999C9.76758 28.4999 9.61827 28.4427 9.50398 28.3297L0.17111 18.9968C-0.0563856 18.7693 -0.0563856 18.3996 0.17111 18.1721L17.6701 0.673063C17.8976 0.445567 18.2674 0.445567 18.4949 0.673063L27.8277 10.0059C28.0552 10.2334 28.0552 10.6032 27.8277 10.8307L10.3287 28.3297C10.2155 28.4427 10.0662 28.4999 9.91689 28.4999ZM1.40899 18.5839L9.91689 27.0918L26.5911 10.4176L18.083 1.90966L1.40899 18.5839Z" fill="black"/>
<path d="M5.25044 28.5003C5.16649 28.5003 5.08232 28.4818 5.00414 28.4467C4.86423 28.3814 4.75464 28.2624 4.7021 28.1165L2.03516 20.7832C1.9243 20.4812 2.08066 20.1462 2.38399 20.0356C2.6886 19.9271 3.02226 20.0821 3.13184 20.3844L5.59798 27.167L8.45844 26.1124C8.75707 26.0002 9.09543 26.1555 9.20758 26.4576C9.31951 26.7598 9.16421 27.0946 8.86217 27.2065L5.4523 28.463C5.38693 28.4886 5.31922 28.5003 5.25044 28.5003Z" fill="black"/>
<path d="M1.51721 18.2341C1.27925 18.2341 1.05538 18.0871 0.969086 17.8504L0.0358201 15.2839C-0.0750439 14.9816 0.0800376 14.648 0.382297 14.5371L5.92358 12.4956C6.22327 12.3861 6.56163 12.5388 6.6725 12.8411C6.78443 13.1431 6.62935 13.4778 6.3273 13.59L1.33073 15.4309L2.06555 17.4514C2.17642 17.7547 2.02005 18.0884 1.71672 18.1993C1.65029 18.2226 1.58258 18.2341 1.51721 18.2341Z" fill="black"/>
<path d="M12.6386 25.7786C12.4019 25.7786 12.1779 25.6327 12.0916 25.3971C11.9796 25.0948 12.1347 24.7601 12.437 24.6482L26.6694 19.4055L24.3782 13.107C24.2674 12.8047 24.4237 12.47 24.7271 12.3591C25.0327 12.2495 25.3662 12.4046 25.4747 12.7079L27.9643 19.5525C28.0752 19.8545 27.9199 20.1882 27.6179 20.299L12.8405 25.7436C12.774 25.7668 12.7063 25.7786 12.6386 25.7786Z" fill="black"/>
<path d="M21.0112 20.2371C20.7745 20.2371 20.5504 20.0914 20.4641 19.8558C20.3522 19.5535 20.5073 19.2188 20.8095 19.1066L23.7142 18.0369C24.0128 17.9249 24.3512 18.08 24.4631 18.3823C24.5753 18.6843 24.42 19.0193 24.1179 19.1312L21.213 20.201C21.1466 20.2266 21.0778 20.2371 21.0112 20.2371Z" fill="black"/>
<path d="M15.3043 18.0173C14.2742 18.0173 13.0692 17.4771 12.0612 16.468C10.4408 14.8476 10.0302 12.7208 11.1245 11.6254C11.6833 11.0666 12.522 10.8834 13.4832 11.1064C14.3466 11.308 15.2286 11.825 15.9658 12.5634C17.5863 14.1826 17.9981 16.3093 16.9038 17.406C16.4909 17.8178 15.9297 18.0173 15.3043 18.0173ZM12.7157 12.1796C12.4474 12.1796 12.1569 12.2413 11.9493 12.4491C11.4161 12.9834 11.6692 14.4252 12.886 15.642C14.1027 16.8576 15.5448 17.112 16.079 16.5789C16.6122 16.0444 16.3578 14.6025 15.1411 13.3858C14.5637 12.8084 13.8624 12.3908 13.2186 12.2413C13.0855 12.211 12.9058 12.1796 12.7157 12.1796Z" fill="black"/>
<path d="M21.5826 13.3346C21.4332 13.3346 21.2839 13.2773 21.1696 13.1641C20.9421 12.9366 20.9421 12.5669 21.1696 12.3394L23.5029 10.0063C23.7304 9.77882 24.1002 9.77882 24.3277 10.0063C24.5552 10.2338 24.5552 10.6036 24.3277 10.8311L21.9944 13.1641C21.8812 13.2773 21.7319 13.3346 21.5826 13.3346Z" fill="black"/>
<path d="M4.08353 19.1673C3.93422 19.1673 3.7849 19.1103 3.67062 18.9971C3.44313 18.7696 3.44313 18.3998 3.67062 18.1723L6.00389 15.8391C6.23139 15.6116 6.60115 15.6116 6.82865 15.8391C7.05614 16.0666 7.05614 16.4363 6.82865 16.6638L4.49537 18.9971C4.38216 19.1103 4.23285 19.1673 4.08353 19.1673Z" fill="black"/>
</svg>
