<svg viewBox="0 0 46 64" fill="none" xmlns="http://www.w3.org/2000/svg">
<path class="pet-card__svg-path" d="M0.510254 22.9897C0.510254 10.5893 10.5996 0.5 23 0.5C35.4004 0.5 45.4897 10.5893 45.4897 22.9897C45.4897 35.7136 37.5145 48.1522 30.7522 56.3968L30.7521 56.3969C30.6007 56.5815 30.3286 56.6084 30.144 56.4569L29.8269 56.8435L30.144 56.4569C29.9595 56.3055 29.9326 56.0333 30.0839 55.8489L30.084 55.8488C36.6772 47.8102 44.6255 35.5325 44.6255 22.9897C44.6255 11.065 34.9248 1.36425 23 1.36425C11.0752 1.36425 1.3745 11.065 1.3745 22.9897C1.3745 31.6191 5.2305 40.177 9.6315 47.1431C14.0381 54.118 19.0272 59.5532 21.3691 61.9489C21.8011 62.3912 22.3823 62.6359 23 62.6359C23.6178 62.6359 24.1987 62.391 24.6307 61.9492L24.6308 61.9491C25.5775 60.9806 26.5397 59.9483 27.491 58.8809C27.6499 58.7029 27.923 58.6872 28.1013 58.846C28.2793 59.0047 28.295 59.2777 28.1362 59.456C27.1757 60.5338 26.2042 61.5758 25.2488 62.5531C24.6511 63.1646 23.8543 63.5 23 63.5C22.1457 63.5 21.3489 63.1646 20.7512 62.553L20.7512 62.553C18.106 59.847 13.0121 54.2539 8.61567 47.2025C3.21923 38.5475 0.510254 30.4034 0.510254 22.9897Z" fill="#EDF2F7" stroke="#EDF2F7"/>
<path class="pet-card__svg-path" d="M11.1427 10.672L11.1427 10.672C14.3463 7.59446 18.5562 5.90015 23 5.90015C32.4382 5.90015 40.1176 13.5795 40.1176 23.0179C40.1176 32.4561 32.4382 40.1355 23 40.1355C13.5617 40.1355 5.88232 32.4561 5.88232 23.0179C5.88232 19.818 6.77084 16.6979 8.45121 13.9943C8.57714 13.7917 8.84361 13.7294 9.0464 13.8553C9.2492 13.9814 9.31132 14.2479 9.18544 14.4504L9.18542 14.4505C7.58977 17.0178 6.7467 19.9806 6.7467 23.0179C6.7467 31.9805 14.0374 39.2713 23.0001 39.2713C31.9627 39.2713 39.2533 31.9807 39.2533 23.018C39.2533 14.0554 31.9626 6.76452 23 6.76452C18.7819 6.76452 14.7825 8.37395 11.7414 11.2952L11.7413 11.2953C11.5694 11.4606 11.296 11.4553 11.1304 11.2829C10.9651 11.1108 10.9706 10.8373 11.1427 10.672Z" fill="#EDF2F7" stroke="#EDF2F7"/>
<g clip-path="url(#clip0_1032_642)">
<path class="pet-card__svg-path" d="M18.4067 17.9816L18.4068 17.9818C18.5814 18.904 18.367 19.7663 17.9514 20.3945C17.533 21.0268 16.9294 21.3988 16.3325 21.3988C15.0771 21.3988 13.6631 20.115 13.6631 18.4096C13.6631 17.5305 13.8839 16.6259 14.2647 15.9494C14.6487 15.2673 15.1616 14.8682 15.7338 14.8682C16.3407 14.8682 16.9216 15.1963 17.4022 15.7642C17.8822 16.3313 18.2443 17.1192 18.4067 17.9816Z" fill="#EDF2F7" stroke="#EDF2F7" stroke-width="0.5"/>
<path class="pet-card__svg-path" d="M22.4051 12.7594L22.4052 12.7594C22.9929 12.9319 23.4708 13.4149 23.7902 14.1005C24.109 14.7847 24.2573 15.6478 24.196 16.525C24.1295 17.4632 23.7037 18.2309 23.1459 18.7161C22.5849 19.204 21.9118 19.3916 21.3373 19.2234C20.7376 19.0465 20.1722 18.5537 19.8108 17.8835C19.4512 17.2164 19.3054 16.3942 19.5202 15.5795L19.5202 15.5794C19.7428 14.7329 20.184 13.925 20.7209 13.3824C21.2613 12.8361 21.8536 12.5973 22.4051 12.7594Z" fill="#EDF2F7" stroke="#EDF2F7" stroke-width="0.5"/>
<path class="pet-card__svg-path" d="M29.6308 20.0793L29.6308 20.0793C30.0242 19.3056 30.2213 18.4536 30.1934 17.6906C30.1655 16.9261 29.9139 16.2751 29.4388 15.8621L29.4382 15.8616C28.9942 15.4733 28.3619 15.4402 27.6631 15.7054C26.9664 15.9698 26.2533 16.517 25.7238 17.1936L25.7237 17.1937C25.216 17.8419 25.0316 18.6542 25.104 19.4205C25.1766 20.1899 25.5054 20.8875 25.9904 21.3101L29.6308 20.0793ZM29.6308 20.0793C28.7782 21.7564 26.9144 22.115 25.9905 21.3101L29.6308 20.0793Z" fill="#EDF2F7" stroke="#EDF2F7" stroke-width="0.5"/>
<path class="pet-card__svg-path" d="M29.7263 22.3405L29.7261 22.3406C29.0859 22.6701 28.6486 23.2607 28.4368 23.9182C28.2243 24.5783 28.2468 25.2817 28.4966 25.821L28.4966 25.821C28.9748 26.8539 30.6321 27.2816 31.9128 26.2518C32.5096 25.7712 32.9721 25.1489 33.2186 24.5113C33.4653 23.873 33.4893 23.2387 33.2452 22.7106L29.7263 22.3405ZM29.7263 22.3405C30.3988 21.9937 31.1768 21.8258 31.8416 21.8831M29.7263 22.3405L31.8416 21.8831M31.8416 21.8831C32.507 21.9405 33.0158 22.2158 33.2452 22.7106L31.8416 21.8831Z" fill="#EDF2F7" stroke="#EDF2F7" stroke-width="0.5"/>
<path class="pet-card__svg-path" d="M15.0864 26.3889C15.0864 24.8511 16.0685 23.4204 17.5008 22.3894C18.9307 21.36 20.764 20.7643 22.3785 20.87C24.6253 21.0194 26.7276 23.0333 27.3143 26.3142C27.5971 27.9017 27.4486 29.3479 26.6476 30.384C25.8516 31.4136 24.3591 32.1041 21.8 32.0657C20.1739 32.0394 18.4872 31.4027 17.2097 30.3729C15.9322 29.3432 15.0864 27.9408 15.0864 26.3889Z" fill="#EDF2F7" stroke="#EDF2F7" stroke-width="0.5"/>
</g>
<defs>
<clipPath id="clip0_1032_642">
<rect width="21.3333" height="21.3333" fill="white" transform="translate(12.333 11.6365)"/>
</clipPath>
</defs>
</svg>
