<svg width="254" height="139" viewBox="0 0 254 139" fill="none" xmlns="http://www.w3.org/2000/svg">
<rect x="0.183716" width="9.68454" height="138.382" rx="4.84227" fill="#2A3C44"/>
<rect x="40.8588" width="9.68454" height="138.382" rx="4.84227" fill="#2A3C44"/>
<rect x="81.5339" width="9.68454" height="138.382" rx="4.84227" fill="#2A3C44"/>
<rect x="122.209" width="9.68454" height="138.382" rx="4.84227" fill="#2A3C44"/>
<rect x="162.884" width="9.68454" height="138.382" rx="4.84227" fill="#2A3C44"/>
<rect x="203.559" width="9.68454" height="138.382" rx="4.84227" fill="#2A3C44"/>
<rect x="244.234" width="9.68454" height="138.382" rx="4.84227" fill="#2A3C44"/>
<rect x="0.183716" y="66.805" width="9.68454" height="71.5768" rx="4.84227" fill="#66CB9F"/>
<rect x="0.183716" y="34.3568" width="9.68454" height="28.6307" rx="4.84227" fill="#F16063"/>
<rect x="40.8588" y="68.7137" width="9.68454" height="28.6307" rx="4.84227" fill="#F16063"/>
<rect x="81.5339" y="56.3071" width="9.68454" height="28.6307" rx="4.84227" fill="#F16063"/>
<rect x="122.209" y="11.4523" width="9.68454" height="28.6307" rx="4.84227" fill="#F16063"/>
<rect x="162.884" y="43.9004" width="9.68454" height="28.6307" rx="4.84227" fill="#F16063"/>
<rect x="40.8588" y="101.162" width="9.68454" height="37.2199" rx="4.84227" fill="#66CB9F"/>
<rect x="81.5339" y="88.7552" width="9.68454" height="49.6266" rx="4.84227" fill="#66CB9F"/>
<rect x="122.209" y="43.9004" width="9.68454" height="94.4813" rx="4.84227" fill="#66CB9F"/>
<rect x="162.884" y="76.3486" width="9.68454" height="62.0332" rx="4.84227" fill="#66CB9F"/>
<rect x="203.559" y="74.4398" width="9.68454" height="28.6307" rx="4.84227" fill="#F16063"/>
<rect x="203.559" y="106.888" width="9.68454" height="31.4938" rx="4.84227" fill="#66CB9F"/>
<rect x="244.234" y="43.9004" width="9.68454" height="28.6307" rx="4.84227" fill="#F16063"/>
<rect x="244.234" y="76.3486" width="9.68454" height="62.0332" rx="4.84227" fill="#66CB9F"/>
</svg>
